<svg width="758" height="122" viewBox="0 0 758 122" fill="none" xmlns="http://www.w3.org/2000/svg">
<path d="M60.2301 90.5743V112.481H29.9707V90.5743H60.2301Z" fill="#6EBE00"/>
<path d="M30.2602 90.6589V112.481H1.03809V90.6589H30.2602Z" fill="#AFE614"/>
<path d="M119.893 26.5547V90.8743H60.0542V26.5547H119.893Z" fill="#AFE614"/>
<path d="M59.993 26.58V69.204H0.956055V26.58H59.993Z" fill="#6EBE00"/>
<path d="M204.463 47.47H216.782V95H204.463V83.263C200.971 91.411 193.89 95.97 185.548 95.97C169.543 95.97 161.492 86.076 161.492 71.332C161.492 56.394 169.252 46.5 184.966 46.5C193.599 46.5 200.971 51.156 204.463 59.401V47.47ZM189.234 84.815C199.71 84.815 204.851 80.741 204.851 71.332C204.851 61.729 199.71 57.655 189.234 57.655C178.176 57.655 173.908 61.729 173.908 71.332C173.908 80.741 178.176 84.815 189.234 84.815ZM258.469 84.815C267.781 84.815 271.952 82.099 273.601 74.242L285.629 77.152C282.331 90.635 272.631 95.97 258.566 95.97C240.621 95.97 230.048 86.076 230.048 71.332C230.048 56.394 240.621 46.5 258.566 46.5C273.116 46.5 282.525 52.417 285.629 65.318L273.601 68.228C272.049 60.371 267.878 57.655 258.469 57.655C246.829 57.655 242.367 62.02 242.367 71.332C242.367 80.45 246.829 84.815 258.469 84.815ZM338.448 47.47H350.767V95H338.448V83.263C334.956 91.411 327.875 95.97 319.533 95.97C303.528 95.97 295.477 86.076 295.477 71.332C295.477 56.394 303.237 46.5 318.951 46.5C327.584 46.5 334.956 51.156 338.448 59.401V47.47ZM323.219 84.815C333.695 84.815 338.836 80.741 338.836 71.332C338.836 61.729 333.695 57.655 323.219 57.655C312.161 57.655 307.893 61.729 307.893 71.332C307.893 80.741 312.161 84.815 323.219 84.815ZM407.004 27.1H419.323V95H407.004V83.263C403.512 91.411 396.431 95.97 388.089 95.97C372.084 95.97 364.033 86.076 364.033 71.332C364.033 56.394 371.793 46.5 387.507 46.5C396.14 46.5 403.512 51.156 407.004 59.401V27.1ZM391.775 84.815C402.251 84.815 407.392 80.741 407.392 71.332C407.392 61.729 402.251 57.655 391.775 57.655C380.717 57.655 376.449 61.729 376.449 71.332C376.449 80.741 380.717 84.815 391.775 84.815ZM484.19 70.556C484.19 72.108 484.19 73.175 484.093 75.115H445.293C446.36 82.584 450.434 85.688 459.649 85.688C467.312 85.688 469.931 84.136 472.356 78.995L483.123 83.554C479.631 91.799 471.483 95.97 459.455 95.97C442.868 95.97 432.683 86.27 432.683 71.526C432.683 56.588 443.062 46.5 458.97 46.5C474.393 46.5 484.19 55.909 484.19 70.556ZM459.067 56.394C450.531 56.394 446.457 59.595 445.39 66.676H472.065C471.58 59.207 467.603 56.394 459.067 56.394ZM566.011 46.5C579.203 46.5 585.411 53.581 585.411 67.549V95H573.092V69.004C573.092 61.147 568.824 57.655 561.646 57.655C552.625 57.655 547.678 62.505 547.678 72.302V95H535.359V70.168C535.359 61.147 531.673 57.655 523.913 57.655C514.892 57.655 509.945 62.505 509.945 72.302V95H497.626V47.47H509.945V58.625C512.467 50.865 517.996 46.5 528.278 46.5C538.463 46.5 544.477 50.768 546.708 59.11C549.424 51.059 555.438 46.5 566.011 46.5ZM636.087 47.47H649.764L626.387 100.335C623.283 107.513 619.306 111.49 608.539 111.49H598.257V100.626H615.911L616.105 100.141L593.892 47.47H607.666L618.627 75.6L621.44 85.203L624.835 75.6L636.087 47.47Z" fill="white"/>
</svg>
